<svg width="13" height="20" viewBox="0 0 13 20" fill="none" xmlns="http://www.w3.org/2000/svg">
<path d="M0.475324 11.1554L8.84463 19.5122C9.15285 19.8375 9.53773 20 10 20C10.4623 20 10.8472 19.8373 11.1554 19.5122L12.131 18.5493C12.4477 18.2327 12.6061 17.8477 12.6061 17.3942C12.6061 16.9492 12.4478 16.5597 12.131 16.226L5.89237 9.99996L12.1313 3.76109C12.4479 3.44442 12.6063 3.0595 12.6063 2.60588C12.6063 2.16093 12.448 1.77129 12.1313 1.43776L11.1556 0.474981C10.8389 0.158312 10.4537 0 10.0002 0C9.54658 0 9.16139 0.158312 8.84481 0.474981L0.475324 8.83184C0.15852 9.16559 2.76566e-05 9.55501 2.76566e-05 10C-1.71661e-05 10.4536 0.15852 10.8387 0.475324 11.1554Z" fill="white"/>
</svg>
