<svg width="13" height="20" viewBox="0 0 13 20" fill="none" xmlns="http://www.w3.org/2000/svg">
<path d="M12.1309 8.84461L3.76163 0.48775C3.45341 0.162538 3.06854 0 2.60623 0C2.14393 0 1.75906 0.162718 1.45084 0.48775L0.475251 1.45066C0.158537 1.76733 0.000179849 2.15225 0.000179849 2.60583C0.000179849 3.05082 0.158492 3.44033 0.475251 3.77399L6.71389 10L0.474981 16.2389C0.158357 16.5556 0 16.9405 0 17.3941C0 17.8391 0.158312 18.2287 0.474981 18.5622L1.45066 19.525C1.76733 19.8417 2.15261 20 2.60605 20C3.05968 20 3.44487 19.8417 3.76145 19.525L12.1309 11.1682C12.4477 10.8344 12.6062 10.445 12.6062 10C12.6063 9.54642 12.4477 9.16127 12.1309 8.84461Z" fill="white"/>
</svg>
